<svg width="115" height="115" viewBox="0 0 115 115" fill="none" xmlns="http://www.w3.org/2000/svg">
<g filter="url(#filter0_d_1616_960)">
<circle cx="57.5" cy="53.5" r="27.5" fill="#1B1B1B"/>
</g>
<path d="M59.3246 49.1375L61.0933 50.9063C61.9059 51.7188 62.5505 52.6835 62.9903 53.7451C63.4301 54.8068 63.6565 55.9447 63.6565 57.0938C63.6565 58.2429 63.4301 59.3808 62.9903 60.4425C62.5505 61.5041 61.9059 62.4688 61.0933 63.2813L60.6508 63.7225C59.0098 65.3636 56.7841 66.2855 54.4633 66.2855C52.1426 66.2855 49.9169 65.3636 48.2758 63.7225C46.6348 62.0815 45.7129 59.8558 45.7129 57.535C45.7129 55.2143 46.6348 52.9886 48.2758 51.3475L50.0446 53.1163C49.46 53.6957 48.9957 54.3849 48.6782 55.1443C48.3608 55.9037 48.1964 56.7183 48.1946 57.5413C48.1928 58.3644 48.3536 59.1797 48.6677 59.9405C48.9819 60.7012 49.4432 61.3925 50.0252 61.9744C50.6072 62.5564 51.2984 63.0177 52.0592 63.3319C52.8199 63.646 53.6352 63.8068 54.4583 63.805C55.2814 63.8032 56.096 63.6389 56.8553 63.3214C57.6147 63.0039 58.3039 62.5396 58.8833 61.955L59.3258 61.5125C60.4975 60.3405 61.1558 58.7511 61.1558 57.0938C61.1558 55.4365 60.4975 53.8471 59.3258 52.675L57.5571 50.9063L59.3258 49.1388L59.3246 49.1375ZM67.7221 56.6513L65.9546 54.8838C66.5391 54.3044 67.0035 53.6152 67.3209 52.8558C67.6384 52.0964 67.8027 51.2818 67.8046 50.4588C67.8064 49.6357 67.6456 48.8204 67.3314 48.0596C67.0173 47.2989 66.556 46.6076 65.974 46.0256C65.392 45.4437 64.7008 44.9823 63.94 44.6682C63.1793 44.3541 62.3639 44.1933 61.5409 44.1951C60.7178 44.1969 59.9032 44.3612 59.1438 44.6787C58.3845 44.9962 57.6953 45.4605 57.1158 46.045L56.6733 46.4875C55.5016 47.6596 54.8434 49.249 54.8434 50.9063C54.8434 52.5636 55.5016 54.153 56.6733 55.325L58.4421 57.0938L56.6733 58.8613L54.9058 57.0938C54.0932 56.2813 53.4486 55.3166 53.0088 54.255C52.5691 53.1933 52.3427 52.0554 52.3427 50.9063C52.3427 49.7572 52.5691 48.6193 53.0088 47.5576C53.4486 46.496 54.0932 45.5313 54.9058 44.7188L55.3483 44.2775C56.9894 42.6365 59.2151 41.7146 61.5358 41.7146C63.8566 41.7146 66.0823 42.6365 67.7233 44.2775C69.3644 45.9186 70.2863 48.1443 70.2863 50.465C70.2863 52.7858 69.3644 55.0115 67.7233 56.6525L67.7221 56.6513Z" fill="white"/>
<defs>
<filter id="filter0_d_1616_960" x="0" y="0" width="115" height="115" filterUnits="userSpaceOnUse" color-interpolation-filters="sRGB">
<feFlood flood-opacity="0" result="BackgroundImageFix"/>
<feColorMatrix in="SourceAlpha" type="matrix" values="0 0 0 0 0 0 0 0 0 0 0 0 0 0 0 0 0 0 127 0" result="hardAlpha"/>
<feOffset dy="4"/>
<feGaussianBlur stdDeviation="15"/>
<feComposite in2="hardAlpha" operator="out"/>
<feColorMatrix type="matrix" values="0 0 0 0 0 0 0 0 0 0 0 0 0 0 0 0 0 0 0.15 0"/>
<feBlend mode="normal" in2="BackgroundImageFix" result="effect1_dropShadow_1616_960"/>
<feBlend mode="normal" in="SourceGraphic" in2="effect1_dropShadow_1616_960" result="shape"/>
</filter>
</defs>
</svg>
