<svg width="30" height="30" viewBox="0 0 30 30" fill="none" xmlns="http://www.w3.org/2000/svg">
<path d="M16.25 11.25H21.875L21.25 13.75H16.25V25H13.75V13.75H8.75V11.25H13.75V8.91C13.75 6.68125 13.9825 5.8725 14.4175 5.0575C14.8438 4.25226 15.5023 3.59376 16.3075 3.1675C17.1225 2.7325 17.9313 2.5 20.16 2.5C20.8125 2.5 21.385 2.5625 21.875 2.6875V5H20.16C18.505 5 18.0012 5.0975 17.4875 5.3725C17.1075 5.575 16.825 5.8575 16.6225 6.2375C16.3475 6.75125 16.25 7.255 16.25 8.91V11.25Z" fill="white"/>
</svg>
