<svg width="30" height="30" viewBox="0 0 30 30" fill="none" xmlns="http://www.w3.org/2000/svg">
<path d="M16.3246 10.1375L18.0933 11.9063C18.9059 12.7188 19.5505 13.6835 19.9903 14.7451C20.4301 15.8068 20.6565 16.9447 20.6565 18.0938C20.6565 19.2429 20.4301 20.3808 19.9903 21.4425C19.5505 22.5041 18.9059 23.4688 18.0933 24.2813L17.6508 24.7225C16.0098 26.3636 13.7841 27.2855 11.4633 27.2855C9.14257 27.2855 6.91686 26.3636 5.27584 24.7225C3.63481 23.0815 2.71289 20.8558 2.71289 18.535C2.71289 16.2143 3.63481 13.9886 5.27584 12.3475L7.04459 14.1163C6.46005 14.6957 5.99572 15.3849 5.67825 16.1443C5.36078 16.9037 5.19642 17.7183 5.19462 18.5413C5.19282 19.3644 5.3536 20.1797 5.66774 20.9405C5.98189 21.7012 6.4432 22.3925 7.02519 22.9744C7.60718 23.5564 8.2984 24.0177 9.05916 24.3319C9.81992 24.646 10.6352 24.8068 11.4583 24.805C12.2814 24.8032 13.096 24.6389 13.8553 24.3214C14.6147 24.0039 15.3039 23.5396 15.8833 22.955L16.3258 22.5125C17.4975 21.3405 18.1558 19.7511 18.1558 18.0938C18.1558 16.4365 17.4975 14.8471 16.3258 13.675L14.5571 11.9063L16.3258 10.1388L16.3246 10.1375ZM24.7221 17.6513L22.9546 15.8838C23.5391 15.3044 24.0035 14.6152 24.3209 13.8558C24.6384 13.0964 24.8027 12.2818 24.8046 11.4588C24.8064 10.6357 24.6456 9.82038 24.3314 9.05962C24.0173 8.29886 23.556 7.60764 22.974 7.02565C22.392 6.44365 21.7008 5.98234 20.94 5.6682C20.1793 5.35406 19.3639 5.19328 18.5409 5.19508C17.7178 5.19688 16.9032 5.36124 16.1438 5.67871C15.3845 5.99618 14.6953 6.46051 14.1158 7.04505L13.6733 7.48755C12.5016 8.65959 11.8434 10.249 11.8434 11.9063C11.8434 13.5636 12.5016 15.153 13.6733 16.325L15.4421 18.0938L13.6733 19.8613L11.9058 18.0938C11.0932 17.2813 10.4486 16.3166 10.0088 15.255C9.56906 14.1933 9.34271 13.0554 9.34271 11.9063C9.34271 10.7572 9.56906 9.61927 10.0088 8.55761C10.4486 7.49595 11.0932 6.53132 11.9058 5.7188L12.3483 5.27755C13.9894 3.63652 16.2151 2.7146 18.5358 2.7146C20.8566 2.7146 23.0823 3.63652 24.7233 5.27755C26.3644 6.91857 27.2863 9.14428 27.2863 11.465C27.2863 13.7858 26.3644 16.0115 24.7233 17.6525L24.7221 17.6513Z" fill="white"/>
</svg>
