<svg width="82" height="82" viewBox="0 0 82 82" fill="none" xmlns="http://www.w3.org/2000/svg">
<path d="M40.9997 75.1667C22.1294 75.1667 6.83301 59.8702 6.83301 41C6.83301 22.1297 22.1294 6.83333 40.9997 6.83333C59.8699 6.83333 75.1663 22.1297 75.1663 41C75.1663 59.8702 59.8699 75.1667 40.9997 75.1667ZM40.9997 68.3333C48.2489 68.3333 55.2013 65.4536 60.3273 60.3276C65.4533 55.2016 68.333 48.2492 68.333 41C68.333 33.7507 65.4533 26.7984 60.3273 21.6724C55.2013 16.5464 48.2489 13.6667 40.9997 13.6667C33.7504 13.6667 26.7981 16.5464 21.6721 21.6724C16.5461 26.7984 13.6663 33.7507 13.6663 41C13.6663 48.2492 16.5461 55.2016 21.6721 60.3276C26.7981 65.4536 33.7504 68.3333 40.9997 68.3333ZM36.2915 28.7512L52.9614 39.8622C53.1489 39.987 53.3026 40.1561 53.4089 40.3546C53.5153 40.5531 53.5709 40.7748 53.5709 41C53.5709 41.2252 53.5153 41.4469 53.4089 41.6454C53.3026 41.8438 53.1489 42.013 52.9614 42.1377L36.2881 53.2487C36.0825 53.385 35.8439 53.4631 35.5975 53.4748C35.3511 53.4864 35.1062 53.4311 34.8887 53.3149C34.6711 53.1986 34.4891 53.0256 34.362 52.8142C34.2348 52.6029 34.1672 52.3611 34.1663 52.1144V29.8856C34.1668 29.6384 34.2343 29.3959 34.3616 29.1841C34.489 28.9722 34.6714 28.7988 34.8895 28.6824C35.1075 28.566 35.3531 28.511 35.6 28.5231C35.8469 28.5352 36.0859 28.614 36.2915 28.7512Z" fill="#F7F7F7"/>
</svg>
