<svg width="30" height="30" viewBox="0 0 30 30" fill="none" xmlns="http://www.w3.org/2000/svg">
<path d="M19.1254 6.93752C18.1754 6.93736 17.2632 7.31017 16.5853 7.97573C15.9073 8.64129 15.5178 9.54639 15.5004 10.4963L15.4654 12.465C15.4633 12.5707 15.439 12.6748 15.3939 12.7704C15.3488 12.866 15.284 12.9511 15.2037 13.0199C15.1234 13.0887 15.0295 13.1398 14.9281 13.1697C14.8267 13.1997 14.7202 13.2079 14.6154 13.1938L12.6641 12.9288C10.0966 12.5788 7.63664 11.3963 5.27664 9.43002C4.52914 13.5675 5.98914 16.4338 9.50539 18.645L11.6891 20.0175C11.7929 20.0827 11.8791 20.1724 11.9402 20.2786C12.0013 20.3848 12.0354 20.5044 12.0396 20.6269C12.0438 20.7493 12.0179 20.871 11.9643 20.9811C11.9106 21.0913 11.8307 21.1866 11.7316 21.2588L9.74164 22.7125C10.9254 22.7863 12.0491 22.7338 12.9816 22.5488C18.8791 21.3713 22.8004 16.9338 22.8004 9.61377C22.8004 9.01627 21.5354 6.93752 19.1254 6.93752ZM13.0004 10.45C13.0222 9.24508 13.399 8.07336 14.0836 7.08155C14.7682 6.08974 15.7301 5.32192 16.849 4.87423C17.9679 4.42654 19.194 4.31887 20.3738 4.56471C21.5536 4.81054 22.6347 5.39895 23.4816 6.25627C24.3704 6.25002 25.1266 6.47502 26.8179 5.45002C26.3991 7.50002 26.1929 8.39002 25.3004 9.61377C25.3004 19.1663 19.4291 23.8113 13.4716 25C9.38664 25.815 3.44664 24.4763 1.74414 22.6988C2.61164 22.6313 6.13664 22.2525 8.17414 20.7613C6.45039 19.625 -0.410859 15.5875 4.09789 4.73252C6.21414 7.20377 8.36039 8.88627 10.5354 9.77877C11.9829 10.3725 12.3379 10.36 13.0016 10.4513L13.0004 10.45Z" fill="white"/>
</svg>
